<svg xmlns="http://www.w3.org/2000/svg" width="80" height="20">
  <path fill="#2d2d2d" d="m 8.76,13.37 h 6.2 V 15 H 6.83 V 0.67 h 1.93 z"/>
  <path fill="#2d2d2d" d="m 20.09125,4.71 q 0.91,0 1.68,0.31 0.78,0.3 1.34,0.88 0.57,0.57 0.89,1.42 0.32,0.84 0.32,1.92 0,0.42 -0.09,0.56 -0.09,0.14 -0.34,0.14 h -6.77 q 0.02,0.96 0.26,1.67 0.24,0.71 0.66,1.19 0.42,0.47 1,0.71 0.58,0.23 1.3,0.23 0.67,0 1.15,-0.15 0.49,-0.16 0.84,-0.34 0.35,-0.18 0.58,-0.33 0.24,-0.16 0.41,-0.16 0.22,0 0.34,0.17 l 0.5,0.65 q -0.33,0.4 -0.79,0.7 -0.46,0.29 -0.99,0.48 -0.52,0.19 -1.08,0.28 -0.56,0.1 -1.11,0.1 -1.05,0 -1.94,-0.35 -0.88,-0.36 -1.53,-1.04 -0.64,-0.69 -1,-1.7 -0.36,-1.01 -0.36,-2.32 0,-1.06 0.32,-1.98 0.33,-0.92 0.94,-1.59 0.61,-0.68 1.49,-1.06 0.88,-0.39 1.98,-0.39 z m 0.04,1.31 q -1.29,0 -2.03,0.75 -0.74,0.74 -0.92,2.06 h 5.54 q 0,-0.62 -0.18,-1.13 -0.17,-0.52 -0.51,-0.89 -0.33,-0.38 -0.81,-0.58 -0.48,-0.21 -1.09,-0.21 z"/>
  <path fill="#2d2d2d" d="m 28.740937,9.81 -3.41,-4.94 h 1.71 q 0.22,0 0.32,0.07 0.1,0.07 0.18,0.2 l 2.480001,3.8 q 0.09,-0.28 0.259999,-0.56 l 2.18,-3.2 q 0.09,-0.14 0.19,-0.22 0.11,-0.09 0.260001,-0.09 h 1.64 L 31.140937,9.71 34.690938,15 h -1.710001 q -0.22,0 -0.349999,-0.11 -0.120001,-0.12 -0.200001,-0.26 l -2.549999,-3.97 q -0.07,0.29 -0.210001,0.52 l -2.359999,3.45 q -0.100001,0.14 -0.220001,0.26 -0.11,0.11 -0.31,0.11 h -1.59 z"/>
  <path fill="#2d2d2d" d="M 44.645,0.67 V 2.3 h -4.64 V 15 h -1.93 V 2.3 h -4.65 V 0.67 Z"/>
  <path fill="#2d2d2d" d="m 47.703125,17.99 q -0.09,0.2 -0.23,0.32 -0.13,0.12 -0.41,0.12 h -1.32 l 1.85,-4.02 -4.18,-9.54 h 1.54 q 0.23,0 0.36,0.12 0.14,0.11 0.19,0.25 l 2.71,6.38 q 0.08,0.23 0.15,0.45 0.07,0.21 0.12,0.44 0.13,-0.45 0.3,-0.9 l 2.63,-6.37 q 0.06,-0.16 0.2,-0.26 0.15,-0.11 0.33,-0.11 h 1.41 z"/>
  <path fill="#2d2d2d" d="M 54.925625,18.43 V 4.87 h 1.07 q 0.38,0 0.47,0.37 l 0.15,1.2 q 0.65,-0.79 1.49,-1.27 0.84,-0.48 1.92,-0.48 0.88,0 1.59,0.34 0.71,0.33 1.21,0.99 0.5,0.65 0.77,1.62 0.27,0.97 0.27,2.23 0,1.12 -0.3,2.09 -0.3,0.96 -0.87,1.67 -0.56,0.7 -1.38,1.11 -0.81,0.4 -1.83,0.4 -0.93,0 -1.6,-0.31 -0.66,-0.31 -1.17,-0.88 v 4.48 z m 4.52,-12.3 q -0.87,0 -1.53,0.4 -0.65,0.4 -1.2,1.13 v 4.9 q 0.48,0.66 1.06,0.93 0.59,0.27 1.31,0.27 1.42,0 2.18,-1.01 0.76,-1.01 0.76,-2.88 0,-0.99 -0.18,-1.7 -0.17,-0.71 -0.5,-1.16 -0.33,-0.46 -0.81,-0.67 -0.48,-0.21 -1.09,-0.21 z"/>
  <path fill="#2d2d2d" d="m 70.286563,4.71 q 0.909999,0 1.679999,0.31 0.78,0.3 1.34,0.88 0.570001,0.57 0.89,1.42 0.32,0.84 0.32,1.92 0,0.42 -0.09,0.56 -0.09,0.14 -0.340001,0.14 h -6.769999 q 0.02,0.96 0.259999,1.67 0.240001,0.71 0.660001,1.19 0.42,0.47 1,0.71 0.58,0.23 1.3,0.23 0.67,0 1.15,-0.15 0.49,-0.16 0.839999,-0.34 0.350001,-0.18 0.58,-0.33 0.240001,-0.16 0.41,-0.16 0.220001,0 0.34,0.17 l 0.5,0.65 q -0.33,0.4 -0.789999,0.7 -0.460001,0.29 -0.990001,0.48 -0.52,0.19 -1.08,0.28 -0.56,0.1 -1.11,0.1 -1.05,0 -1.94,-0.35 -0.879999,-0.36 -1.53,-1.04 -0.64,-0.69 -1,-1.7 -0.36,-1.01 -0.36,-2.32 0,-1.06 0.320001,-1.98 0.33,-0.92 0.94,-1.59 0.61,-0.68 1.489999,-1.06 0.88,-0.39 1.980001,-0.39 z m 0.04,1.31 q -1.289999,0 -2.03,0.75 -0.74,0.74 -0.919999,2.06 h 5.539999 q 0,-0.62 -0.179999,-1.13 -0.17,-0.52 -0.510001,-0.89 -0.329999,-0.38 -0.81,-0.58 -0.48,-0.21 -1.09,-0.21 z"/>
</svg>
