<svg xmlns="http://www.w3.org/2000/svg" width="128" height="128">
  <circle r="64" cy="64" cx="64" fill="#2d2d2d"/>
  <path opacity="0.2" d="M 124.13672 42.271484 A 72 72 0 0 1 125 53 A 72 72 0 0 1 53 125 A 72 72 0 0 1 42.234375 124.09961 A 64 64 0 0 0 64 128 A 64 64 0 0 0 128 64 A 64 64 0 0 0 124.13672 42.271484 z "/>
  <path fill="#f0f0f0" d="M 90.88,90 H 84.24 Q 83.2,90 82.56,89.48 81.92,88.96 81.6,88.16 L 65.4,47.72 q -0.52,-1.36 -1.04,-2.92 -0.48,-1.6 -0.88,-3.36 -0.36,1.76 -0.8,3.36 -0.44,1.6 -0.96,2.92 L 45.56,88.16 Q 45.32,88.88 44.64,89.44 43.96,90 42.96,90 h -5.8 L 60.52,32.68 h 7 z"/>
</svg>
